<svg width="18" height="18" viewBox="0 0 18 18" fill="none" xmlns="http://www.w3.org/2000/svg">
<path d="M1 3C1 2.05719 1 1.58579 1.29289 1.29289C1.58579 1 2.05719 1 3 1H5.15384C6.09665 1 6.56806 1 6.86095 1.29289C7.15385 1.58579 7.15385 2.05719 7.15385 3V5.15384C7.15385 6.09665 7.15385 6.56806 6.86095 6.86095C6.56806 7.15385 6.09666 7.15385 5.15385 7.15385H3C2.05719 7.15385 1.58579 7.15385 1.29289 6.86095C1 6.56806 1 6.09666 1 5.15385V3Z" fill="currentColor" stroke="currentColor" stroke-linecap="round" stroke-linejoin="round"/>
<path d="M1 13.8462C1 12.4319 1 11.7248 1.43934 11.2855C1.87868 10.8462 2.58579 10.8462 4 10.8462H4.15384C5.56806 10.8462 6.27517 10.8462 6.71451 11.2855C7.15385 11.7248 7.15385 12.4319 7.15385 13.8462V14C7.15385 15.4142 7.15385 16.1213 6.71451 16.5607C6.27517 17 5.56806 17 4.15385 17H4C2.58579 17 1.87868 17 1.43934 16.5607C1 16.1213 1 15.4142 1 14V13.8462Z" stroke="currentColor" stroke-linecap="round" stroke-linejoin="round"/>
<path d="M10.8461 4C10.8461 2.58579 10.8461 1.87868 11.2855 1.43934C11.7248 1 12.4319 1 13.8461 1H14C15.4142 1 16.1213 1 16.5606 1.43934C17 1.87868 17 2.58579 17 4V4.15384C17 5.56806 17 6.27517 16.5606 6.71451C16.1213 7.15385 15.4142 7.15385 14 7.15385H13.8461C12.4319 7.15385 11.7248 7.15385 11.2855 6.71451C10.8461 6.27517 10.8461 5.56806 10.8461 4.15385V4Z" stroke="currentColor" stroke-linecap="round" stroke-linejoin="round"/>
<path d="M10.8461 12.8462C10.8461 11.9034 10.8461 11.4319 11.139 11.1391C11.4319 10.8462 11.9033 10.8462 12.8461 10.8462H15C15.9428 10.8462 16.4142 10.8462 16.7071 11.1391C17 11.4319 17 11.9034 17 12.8462V15C17 15.9428 17 16.4142 16.7071 16.7071C16.4142 17 15.9428 17 15 17H12.8461C11.9033 17 11.4319 17 11.139 16.7071C10.8461 16.4142 10.8461 15.9428 10.8461 15V12.8462Z" stroke="currentColor" stroke-width="1.5" stroke-linecap="round" stroke-linejoin="round"/>
</svg>
